<svg xmlns="http://www.w3.org/2000/svg" xmlns:xlink="http://www.w3.org/1999/xlink" version="1.1" width="256" height="256" viewBox="0 0 256 256" xml:space="preserve">

<defs>
</defs>
<g style="stroke: #ffe642; stroke-width: 0; stroke-dasharray: #ffe642; stroke-linecap: butt; stroke-linejoin: miter; stroke-miterlimit: 10; fill: ; fill-rule: nonzero; opacity: 1;" transform="translate(1.4065934065934016 1.4065934065934016) scale(2.81 2.81)" >
	<path d="M 57.762 77.09 c -0.256 0 -0.512 -0.098 -0.707 -0.293 l -5.485 -5.485 c -0.391 -0.391 -0.391 -1.023 0 -1.414 l 18.328 -18.328 c 0.391 -0.391 1.023 -0.391 1.414 0 l 5.485 5.485 c 0.391 0.391 0.391 1.023 0 1.414 L 58.469 76.797 C 58.273 76.992 58.018 77.09 57.762 77.09 z M 53.69 70.604 l 4.071 4.071 l 16.914 -16.914 l -4.071 -4.071 L 53.69 70.604 z" style="stroke: #ffe642; stroke-width: 1; stroke-dasharray: #ffe642; stroke-linecap: butt; stroke-linejoin: miter; stroke-miterlimit: 10; fill: rgb(0,0,0); fill-rule: nonzero; opacity: 1;" transform=" matrix(1 0 0 1 0 0) " stroke-linecap="round" />
	<path d="M 80.705 90 c -0.256 0 -0.512 -0.098 -0.707 -0.293 L 62.071 71.78 c -0.391 -0.391 -0.391 -1.023 0 -1.414 l 8.295 -8.295 c 0.391 -0.391 1.023 -0.391 1.414 0 l 17.927 17.927 c 0.391 0.391 0.391 1.023 0 1.414 l -8.295 8.295 C 81.217 89.902 80.961 90 80.705 90 z M 64.192 71.073 l 16.513 16.513 l 6.881 -6.881 L 71.073 64.192 L 64.192 71.073 z" style="stroke: #ffe642; stroke-width: 1; stroke-dasharray: #ffe642; stroke-linecap: butt; stroke-linejoin: miter; stroke-miterlimit: 10; fill: rgb(0,0,0); fill-rule: nonzero; opacity: 1;" transform=" matrix(1 0 0 1 0 0) " stroke-linecap="round" />
	<path d="M 56.31 67.572 c -0.243 0 -0.487 -0.088 -0.679 -0.266 L 44.316 56.839 c -0.405 -0.375 -0.43 -1.008 -0.055 -1.413 c 0.374 -0.407 1.008 -0.43 1.413 -0.056 l 10.608 9.814 l 8.902 -8.902 L 55.79 46.127 c -0.375 -0.405 -0.351 -1.038 0.056 -1.413 c 0.404 -0.375 1.037 -0.351 1.413 0.055 l 10.048 10.862 c 0.364 0.394 0.353 1.006 -0.027 1.386 L 57.017 67.279 C 56.822 67.475 56.565 67.572 56.31 67.572 z" style="stroke: #ffe642; stroke-width: 1; stroke-dasharray: #ffe642; stroke-linecap: butt; stroke-linejoin: miter; stroke-miterlimit: 10; fill: rgb(0,0,0); fill-rule: nonzero; opacity: 1;" transform=" matrix(1 0 0 1 0 0) " stroke-linecap="round" />
	<path d="M 33.476 46.448 c -0.243 0 -0.487 -0.088 -0.679 -0.266 L 3.062 18.674 C 2.898 18.523 2.79 18.321 2.754 18.1 L 0.013 1.16 c -0.051 -0.317 0.053 -0.64 0.28 -0.867 c 0.228 -0.227 0.552 -0.327 0.867 -0.28 L 18.1 2.754 c 0.221 0.036 0.423 0.144 0.574 0.308 l 27.06 29.25 c 0.375 0.406 0.351 1.038 -0.055 1.413 c -0.405 0.375 -1.039 0.35 -1.413 -0.055 L 17.44 4.673 L 2.208 2.208 L 4.673 17.44 l 29.481 27.274 c 0.405 0.375 0.43 1.007 0.055 1.413 C 34.013 46.341 33.744 46.448 33.476 46.448 z" style="stroke: #ffe642; stroke-width: 1; stroke-dasharray: #ffe642; stroke-linecap: butt; stroke-linejoin: miter; stroke-miterlimit: 10; fill: rgb(0,0,0); fill-rule: nonzero; opacity: 1;" transform=" matrix(1 0 0 1 0 0) " stroke-linecap="round" />
	<path d="M 39.104 40.104 c -0.256 0 -0.512 -0.098 -0.707 -0.293 L 16.06 17.474 c -0.391 -0.391 -0.391 -1.023 0 -1.414 s 1.023 -0.391 1.414 0 l 22.337 22.337 c 0.391 0.391 0.391 1.023 0 1.414 C 39.616 40.006 39.36 40.104 39.104 40.104 z" style="stroke: #ffe642; stroke-width: 1; stroke-dasharray: #ffe642; stroke-linecap: butt; stroke-linejoin: miter; stroke-miterlimit: 10; fill: rgb(0,0,0); fill-rule: nonzero; opacity: 1;" transform=" matrix(1 0 0 1 0 0) " stroke-linecap="round" />
	<path d="M 61.44 62.44 c -0.256 0 -0.512 -0.098 -0.707 -0.293 L 50.188 51.603 c -0.391 -0.391 -0.391 -1.023 0 -1.414 s 1.023 -0.391 1.414 0 l 10.545 10.545 c 0.391 0.391 0.391 1.023 0 1.414 C 61.952 62.343 61.696 62.44 61.44 62.44 z" style="stroke: #ffe642; stroke-width: 1; stroke-dasharray: #ffe642; stroke-linecap: butt; stroke-linejoin: miter; stroke-miterlimit: 10; fill: rgb(0,0,0); fill-rule: nonzero; opacity: 1;" transform=" matrix(1 0 0 1 0 0) " stroke-linecap="round" />
	<path d="M 68.79 78.084 c -0.256 0 -0.512 -0.098 -0.707 -0.293 c -0.391 -0.391 -0.391 -1.023 0 -1.414 l 8.294 -8.294 c 0.391 -0.391 1.023 -0.391 1.414 0 s 0.391 1.023 0 1.414 l -8.294 8.294 C 69.302 77.986 69.046 78.084 68.79 78.084 z" style="stroke: #ffe642; stroke-width: 1; stroke-dasharray: #ffe642; stroke-linecap: butt; stroke-linejoin: miter; stroke-miterlimit: 10; fill: rgb(0,0,0); fill-rule: nonzero; opacity: 1;" transform=" matrix(1 0 0 1 0 0) " stroke-linecap="round" />
	<path d="M 74.694 83.989 c -0.256 0 -0.512 -0.098 -0.707 -0.293 c -0.391 -0.391 -0.391 -1.023 0 -1.414 l 8.295 -8.295 c 0.391 -0.391 1.023 -0.391 1.414 0 s 0.391 1.023 0 1.414 l -8.295 8.295 C 75.206 83.892 74.95 83.989 74.694 83.989 z" style="stroke: #ffe642; stroke-width: 1; stroke-dasharray: #ffe642; stroke-linecap: butt; stroke-linejoin: miter; stroke-miterlimit: 10; fill: rgb(0,0,0); fill-rule: nonzero; opacity: 1;" transform=" matrix(1 0 0 1 0 0) " stroke-linecap="round" />
	<path d="M 32.238 77.09 c -0.265 0 -0.52 -0.105 -0.707 -0.293 L 13.203 58.469 c -0.391 -0.391 -0.391 -1.023 0 -1.414 l 5.485 -5.485 c 0.375 -0.375 1.039 -0.375 1.414 0 L 38.43 69.897 c 0.391 0.391 0.391 1.023 0 1.414 l -5.485 5.485 C 32.758 76.984 32.503 77.09 32.238 77.09 z M 15.324 57.762 l 16.914 16.914 l 4.071 -4.071 L 19.395 53.69 L 15.324 57.762 z" style="stroke: #ffe642; stroke-width: 1; stroke-dasharray: #ffe642; stroke-linecap: butt; stroke-linejoin: miter; stroke-miterlimit: 10; fill: rgb(0,0,0); fill-rule: nonzero; opacity: 1;" transform=" matrix(1 0 0 1 0 0) " stroke-linecap="round" />
	<path d="M 9.294 90 c -0.265 0 -0.52 -0.105 -0.707 -0.293 l -8.294 -8.295 c -0.391 -0.391 -0.391 -1.023 0 -1.414 L 18.22 62.071 c 0.188 -0.188 0.442 -0.293 0.707 -0.293 l 0 0 c 0.265 0 0.52 0.105 0.707 0.293 l 8.294 8.295 c 0.391 0.391 0.391 1.023 0 1.414 L 10.001 89.707 C 9.814 89.895 9.56 90 9.294 90 z M 2.414 80.705 l 6.88 6.881 l 16.513 -16.513 l -6.88 -6.881 L 2.414 80.705 z" style="stroke: #ffe642; stroke-width: 1; stroke-dasharray: #ffe642; stroke-linecap: butt; stroke-linejoin: miter; stroke-miterlimit: 10; fill: rgb(0,0,0); fill-rule: nonzero; opacity: 1;" transform=" matrix(1 0 0 1 0 0) " stroke-linecap="round" />
	<path d="M 33.69 67.572 c -0.256 0 -0.512 -0.098 -0.707 -0.293 L 22.721 57.017 c -0.38 -0.38 -0.392 -0.992 -0.027 -1.386 L 71.325 3.062 c 0.152 -0.164 0.354 -0.272 0.574 -0.308 l 16.94 -2.741 c 0.322 -0.05 0.642 0.054 0.867 0.28 c 0.228 0.227 0.331 0.55 0.28 0.867 L 87.246 18.1 c -0.036 0.221 -0.145 0.423 -0.309 0.574 L 34.37 67.307 C 34.178 67.484 33.934 67.572 33.69 67.572 z M 24.815 56.282 l 8.902 8.902 l 51.61 -47.744 l 2.464 -15.232 L 72.56 4.673 L 24.815 56.282 z" style="stroke: #ffe642; stroke-width: 1; stroke-dasharray: #ffe642; stroke-linecap: butt; stroke-linejoin: miter; stroke-miterlimit: 10; fill: rgb(0,0,0); fill-rule: nonzero; opacity: 1;" transform=" matrix(1 0 0 1 0 0) " stroke-linecap="round" />
	<path d="M 28.559 62.44 c -0.256 0 -0.512 -0.098 -0.707 -0.293 c -0.391 -0.391 -0.391 -1.023 0 -1.414 L 72.525 16.06 c 0.391 -0.391 1.023 -0.391 1.414 0 s 0.391 1.023 0 1.414 L 29.266 62.147 C 29.071 62.343 28.815 62.44 28.559 62.44 z" style="stroke: #ffe642; stroke-width: 1; stroke-dasharray: #ffe642; stroke-linecap: butt; stroke-linejoin: miter; stroke-miterlimit: 10; fill: rgb(0,0,0); fill-rule: nonzero; opacity: 1;" transform=" matrix(1 0 0 1 0 0) " stroke-linecap="round" />
	<path d="M 21.21 78.084 c -0.256 0 -0.512 -0.098 -0.707 -0.293 l -8.294 -8.294 c -0.391 -0.391 -0.391 -1.023 0 -1.414 s 1.023 -0.391 1.414 0 l 8.294 8.294 c 0.391 0.391 0.391 1.023 0 1.414 C 21.722 77.986 21.466 78.084 21.21 78.084 z" style="stroke: #ffe642; stroke-width: 1; stroke-dasharray: #ffe642; stroke-linecap: butt; stroke-linejoin: miter; stroke-miterlimit: 10; fill: rgb(0,0,0); fill-rule: nonzero; opacity: 1;" transform=" matrix(1 0 0 1 0 0) " stroke-linecap="round" />
	<path d="M 15.306 83.989 c -0.256 0 -0.512 -0.098 -0.707 -0.293 l -8.294 -8.295 c -0.391 -0.391 -0.391 -1.023 0 -1.414 s 1.023 -0.391 1.414 0 l 8.294 8.295 c 0.391 0.391 0.391 1.023 0 1.414 C 15.817 83.892 15.562 83.989 15.306 83.989 z" style="stroke: #ffe642; stroke-width: 1; stroke-dasharray: #ffe642; stroke-linecap: butt; stroke-linejoin: miter; stroke-miterlimit: 10; fill: rgb(0,0,0); fill-rule: nonzero; opacity: 1;" transform=" matrix(1 0 0 1 0 0) " stroke-linecap="round" />
</g>
</svg>